# xmcd
#
# Track frame offsets:
#	150
#	11018
#	22611
#	36000
#	50029
#	61918
#	77681
#	91794
#	104327
#	116478
#	129157
#	140419
#
# Disc length: 2051 seconds
#
# Revision: 1
# Processed by: cddbd v1.5.2PL0 Copyright (c) Steve Scherf et al.
# Submitted via: audiograbber 1.83.01
#
DISCID=8a08010c
DTITLE=New South - Southbound Train
DYEAR=2016
DGENRE=Country
TTITLE0=Southbound Train
TTITLE1=Let Your Love Flow
TTITLE2=Broken Lady
TTITLE3=You Gave Me A Mountain
TTITLE4=Way Down
TTITLE5=Danny's Song
TTITLE6=Mirror Mirror
TTITLE7=Y'all Come Back Saloon
TTITLE8=I Don't Want To Cry
TTITLE9=Low And Behold
TTITLE10=The Boy's Are Back In Town
TTITLE11=Old Flame
EXTD=Banson MO Group
EXTT0=
EXTT1=
EXTT2=
EXTT3=
EXTT4=
EXTT5=
EXTT6=
EXTT7=
EXTT8=
EXTT9=
EXTT10=
EXTT11=
PLAYORDER=
